<svg width="382" height="22" viewBox="0 0 382 22" fill="none" xmlns="http://www.w3.org/2000/svg">
	<path d="M211.919 21L201.459 3L191 21" stroke="#333333" stroke-width="3"/>
	<path d="M232.838 21L222.135 3L211.432 21" stroke="#333333" stroke-width="3"/>
	<path d="M253.757 21L243.297 3L232.838 21" stroke="#333333" stroke-width="3"/>
	<path d="M275.162 21L264.459 3L253.757 21" stroke="#333333" stroke-width="3"/>
	<path d="M296.081 21L285.622 3L275.162 21" stroke="#333333" stroke-width="3"/>
	<path d="M317 21L306.297 3L295.595 21" stroke="#333333" stroke-width="3"/>
	<path d="M337.919 21L327.459 3L317 21" stroke="#333333" stroke-width="3"/>
	<path d="M359.324 21L348.622 3L337.919 21" stroke="#333333" stroke-width="3"/>
	<path d="M380.243 21L369.784 3L359.324 21" stroke="#333333" stroke-width="3"/>
	<path d="M22.9189 21L12.4595 3L2 21" stroke="#333333" stroke-width="3"/>
	<path d="M43.8378 21L33.1351 3L22.4324 21" stroke="#333333" stroke-width="3"/>
	<path d="M64.7567 21L54.2973 3L43.8378 21" stroke="#333333" stroke-width="3"/>
	<path d="M86.1621 21L75.4594 3L64.7567 21" stroke="#333333" stroke-width="3"/>
	<path d="M107.081 21L96.6216 3L86.1622 21" stroke="#333333" stroke-width="3"/>
	<path d="M128 21L117.297 3L106.595 21" stroke="#333333" stroke-width="3"/>
	<path d="M148.919 21L138.459 3L128 21" stroke="#333333" stroke-width="3"/>
	<path d="M170.324 21L159.622 3L148.919 21" stroke="#333333" stroke-width="3"/>
	<path d="M191.243 21L180.784 3L170.324 21" stroke="#333333" stroke-width="3"/>
</svg>